<?xml version="1.0" standalone="no"?>
<!DOCTYPE svg PUBLIC "-//W3C//DTD SVG 20010904//EN"
 "http://www.w3.org/TR/2001/REC-SVG-20010904/DTD/svg10.dtd">
<svg version="1.0" xmlns="http://www.w3.org/2000/svg"
 width="260.000000pt" height="260.000000pt" viewBox="0 0 260.000000 260.000000"
 preserveAspectRatio="xMidYMid meet">
<metadata>
Created by potrace 1.11, written by Peter Selinger 2001-2013
</metadata>
<g transform="translate(0.000000,260.000000) scale(0.100000,-0.100000)"
fill="#000000" stroke="none">
<path d="M998 2112 c-76 -60 -261 -232 -256 -238 2 -1 66 4 143 12 242 27 649
10 885 -37 91 -18 321 -77 384 -99 33 -11 61 -18 63 -16 4 4 -113 76 -220 135
-136 75 -379 171 -555 220 -97 27 -339 81 -362 81 -5 0 -42 -26 -82 -58z"/>
<path d="M1133 1740 c-143 -11 -310 -35 -422 -59 -169 -37 -161 -32 -217 -118
-63 -96 -146 -242 -180 -319 l-25 -57 48 -49 c48 -49 275 -238 286 -238 3 0
41 24 84 54 516 354 1134 551 1747 557 l81 0 -40 18 c-83 37 -315 110 -445
140 -272 62 -655 91 -917 71z"/>
</g>
</svg>
